<svg id="Layer_1" height="512" viewBox="0 0 512 512" width="512" xmlns="http://www.w3.org/2000/svg" data-name="Layer 1"><path d="m414.33 69.46 61.67 110.6h-121.6l59.53-110.6z" fill="#56bfab"/><path d="m476 180.06-220 262.48 98.38-262.48h.02z" fill="#6addc7"/><path d="m413.93 69.46-59.53 110.6h-.02l-98.38-110.6z" fill="#6addc7"/><path d="m256 69.46 98.38 110.6h-196.76z" fill="#56bfab"/><path d="m354.38 180.06-98.38 262.48-98.38-262.48z" fill="#adf0e5"/><path d="m256 69.46-98.38 110.6h-.02l-59.53-110.6z" fill="#6addc7"/><path d="m157.62 180.06 98.38 262.48-220-262.48h121.6z" fill="#6addc7"/><path d="m98.07 69.46 59.53 110.6h-121.6l61.67-110.6z" fill="#56bfab"/><path d="m66 180.06h-30l220 262.48-24.267-64.746z" fill="#57b2a1"/><path d="m98.07 69.46h-.4l-61.67 110.6h30l46.609-83.589z" fill="#459384"/><g fill="#284268"><path d="m103.113 203.8a6 6 0 0 0 -9.534 7.287l2.9 3.8a6 6 0 0 0 9.535-7.287z"/><path d="m110.857 223.808a6 6 0 0 0 -1.123 8.41l37.153 48.6a6 6 0 0 0 9.534-7.287l-37.153-48.6a6 6 0 0 0 -8.411-1.123z"/><path d="m419.571 66.31a6.226 6.226 0 0 0 -5.24-3.31h-235.331a6 6 0 0 0 0 12h64.043l-84.22 94.674-50.962-94.674h29.139a6 6 0 0 0 0-12h-39.331a6.226 6.226 0 0 0 -5.24 3.31l-61.669 110.712a6.092 6.092 0 0 0 .642 6.834l220 262.507a5.993 5.993 0 0 0 9.2.021l220-262.474a6.182 6.182 0 0 0 .642-6.89zm-15.44 8.69-50.954 94.667-84.217-94.667zm-148.131 3.431 85.017 95.569h-170.034zm-158.335 2.911 49.89 92.658h-101.442zm-48.665 104.658h104.46l84.628 225.8zm207 239.383-89.728-239.383h179.456zm17.911-13.575 84.632-225.808h104.457zm90.534-237.808 49.89-92.658 51.552 92.658z"/></g></svg>